<svg width="13" height="7" viewBox="0 0 13 7" fill="none" xmlns="http://www.w3.org/2000/svg">
<path d="M6.57867 6.83468L12.2385 0.894469C12.333 0.795354 12.3857 0.663672 12.3857 0.526737C12.3857 0.389801 12.333 0.25812 12.2385 0.159005L12.2322 0.152609C12.1863 0.104393 12.1312 0.0660005 12.0701 0.0397649C12.009 0.0135293 11.9432 0 11.8767 0C11.8102 0 11.7444 0.0135293 11.6833 0.0397649C11.6221 0.0660005 11.567 0.104393 11.5212 0.152609L6.19175 5.74641L0.864425 0.152609C0.81862 0.104393 0.763485 0.0660005 0.702374 0.0397649C0.641263 0.0135293 0.575454 0 0.50895 0C0.442446 0 0.376637 0.0135293 0.315526 0.0397649C0.254415 0.0660005 0.19928 0.104393 0.153475 0.152609L0.147079 0.159005C0.0525942 0.25812 -0.000115395 0.389801 -0.000115395 0.526737C-0.000115395 0.663672 0.0525942 0.795354 0.147079 0.894469L5.80696 6.83468C5.85673 6.88692 5.9166 6.92851 5.98292 6.95693C6.04925 6.98535 6.12066 7 6.19281 7C6.26497 7 6.33638 6.98535 6.4027 6.95693C6.46903 6.92851 6.52889 6.88692 6.57867 6.83468Z" fill="#787878"/>
</svg>
