<svg width="15" height="14" viewBox="0 0 15 14" fill="none" xmlns="http://www.w3.org/2000/svg">
<path id="Vector" d="M14.6037 0.261867C14.4497 0.130802 14.264 0.044969 14.0663 0.0134675C13.8687 -0.0180341 13.6664 0.00597 13.4809 0.0829348L0.683212 5.38708C0.476409 5.47433 0.300343 5.6241 0.178388 5.81649C0.0564334 6.00888 -0.00564178 6.23481 0.000403024 6.46427C0.00644783 6.69374 0.0803268 6.91589 0.212232 7.10123C0.344138 7.28658 0.527831 7.42635 0.738926 7.502L3.50032 8.48612L4.99672 13.5651C4.99958 13.5754 5.00887 13.582 5.01315 13.5915C5.02857 13.6321 5.05108 13.6693 5.07958 13.7015C5.12288 13.7512 5.17877 13.7875 5.24101 13.8064C5.24815 13.8093 5.25315 13.8159 5.26029 13.8174H5.26458L5.26672 13.8181C5.32198 13.8303 5.3794 13.8273 5.43315 13.8093C5.43886 13.8079 5.44457 13.8079 5.451 13.8057C5.50261 13.7871 5.5493 13.7565 5.58743 13.7162C5.59171 13.7111 5.59886 13.7103 5.60314 13.7059L7.75526 11.2669L10.8959 13.7639C11.0866 13.9171 11.3216 14 11.5638 14C12.0881 14 12.5402 13.6231 12.648 13.0973L14.978 1.35086C15.0175 1.15145 15.0036 0.944761 14.9377 0.752847C14.8718 0.560932 14.7563 0.391719 14.6037 0.261867ZM5.77743 9.45044L5.27243 11.9709L4.21888 8.39372L9.4438 5.59975L5.87457 9.26491C5.82514 9.31562 5.79136 9.38015 5.77743 9.45044ZM11.9481 12.9499C11.9346 13.0164 11.9048 13.0782 11.8614 13.1295C11.818 13.1807 11.7625 13.2196 11.7002 13.2425C11.6394 13.2665 11.5736 13.2738 11.5093 13.2638C11.4449 13.2538 11.3842 13.2267 11.3331 13.1853L7.93097 10.48C7.85985 10.4237 7.77065 10.3969 7.68116 10.405C7.59167 10.4132 7.50846 10.4557 7.44812 10.524L5.95028 12.2188L6.45456 9.70564L11.5895 4.43303C11.6496 4.37108 11.6862 4.28911 11.6927 4.20191C11.6991 4.11471 11.675 4.02801 11.6246 3.95746C11.5743 3.88692 11.501 3.83718 11.4181 3.81721C11.3352 3.79724 11.248 3.80836 11.1724 3.84856L3.77031 7.80706L0.972494 6.80827C0.898312 6.78312 0.833612 6.73485 0.787397 6.67019C0.741181 6.60552 0.71575 6.52767 0.71464 6.44747C0.711081 6.36657 0.732137 6.28653 0.774886 6.21846C0.817634 6.15039 0.879957 6.09767 0.953209 6.06761L13.7487 0.763462C13.8143 0.73486 13.8864 0.725609 13.9568 0.736751C14.0272 0.747892 14.0932 0.778984 14.1473 0.826528C14.2011 0.871252 14.2418 0.930459 14.2648 0.997537C14.2877 1.06462 14.2921 1.13692 14.2773 1.20639L11.9481 12.9499Z" fill="black"/>
</svg>
