<svg width="82" height="64" viewBox="0 0 82 64" fill="none" xmlns="http://www.w3.org/2000/svg">
<g id="Group 44">
<path id="Vector" d="M40.682 46.4935C47.1014 46.4935 52.3053 41.2896 52.3053 34.8701C52.3053 28.4507 47.1014 23.2468 40.682 23.2468C34.2626 23.2468 29.0586 28.4507 29.0586 34.8701C29.0586 41.2896 34.2626 46.4935 40.682 46.4935Z" fill="#D7D6D6"/>
<path id="Vector_2" d="M72.6461 11.6234H61.9308C61.386 11.6234 60.7104 11.271 60.1837 10.7153L55.4726 3.27997C55.3981 3.16197 55.3149 3.04967 55.2238 2.94398C53.5965 1.0461 51.3971 0 49.0361 0H32.3275C29.9665 0 27.7672 1.0461 26.1399 2.94398C26.0487 3.04967 25.9656 3.16197 25.8911 3.27997L21.18 10.7262C20.7768 11.1657 20.2101 11.6343 19.6144 11.6343V10.1814C19.6144 9.41067 19.3083 8.67156 18.7633 8.12661C18.2184 7.58166 17.4793 7.27551 16.7086 7.27551H12.3498C11.5792 7.27551 10.84 7.58166 10.2951 8.12661C9.75014 8.67156 9.44399 9.41067 9.44399 10.1814V11.6343H8.71753C6.40624 11.6367 4.19029 12.5559 2.55596 14.1902C0.921628 15.8246 0.00240385 18.0405 0 20.3518V55.211C0.00240385 57.5223 0.921628 59.7383 2.55596 61.3726C4.19029 63.0069 6.40624 63.9262 8.71753 63.9286H72.6461C74.9574 63.9262 77.1733 63.0069 78.8077 61.3726C80.442 59.7383 81.3612 57.5223 81.3636 55.211V20.3409C81.3612 18.0296 80.442 15.8137 78.8077 14.1793C77.1733 12.545 74.9574 11.6258 72.6461 11.6234ZM40.6818 52.3052C37.2335 52.3052 33.8626 51.2826 30.9954 49.3669C28.1282 47.4511 25.8935 44.7281 24.5739 41.5422C23.2543 38.3564 22.909 34.8508 23.5818 31.4687C24.2545 28.0866 25.915 24.98 28.3534 22.5417C30.7917 20.1033 33.8983 18.4428 37.2804 17.7701C40.6625 17.0973 44.1681 17.4426 47.3539 18.7622C50.5398 20.0819 53.2628 22.3165 55.1785 25.1837C57.0943 28.0509 58.1169 31.4218 58.1169 34.8701C58.1116 39.4926 56.273 43.9242 53.0044 47.1927C49.7359 50.4613 45.3043 52.2999 40.6818 52.3052Z" fill="#D7D6D6"/>
</g>
</svg>
