<svg width="13" height="13" viewBox="0 0 13 13" fill="none" xmlns="http://www.w3.org/2000/svg">
<path id="Vector" d="M4.64286 0H0.928571C0.682299 0 0.446113 0.0978312 0.271972 0.271972C0.0978312 0.446113 0 0.682299 0 0.928571V4.64286C0 4.88913 0.0978312 5.12532 0.271972 5.29946C0.446113 5.4736 0.682299 5.57143 0.928571 5.57143H4.64286C4.88913 5.57143 5.12532 5.4736 5.29946 5.29946C5.4736 5.12532 5.57143 4.88913 5.57143 4.64286V0.928571C5.57143 0.682299 5.4736 0.446113 5.29946 0.271972C5.12532 0.0978312 4.88913 0 4.64286 0ZM4.95238 4.64286C4.95238 4.72495 4.91977 4.80368 4.86172 4.86172C4.80368 4.91977 4.72495 4.95238 4.64286 4.95238H0.928571C0.846481 4.95238 0.767752 4.91977 0.709705 4.86172C0.651658 4.80368 0.619048 4.72495 0.619048 4.64286V0.928571C0.619048 0.846481 0.651658 0.767752 0.709705 0.709705C0.767752 0.651658 0.846481 0.619048 0.928571 0.619048H4.64286C4.72495 0.619048 4.80368 0.651658 4.86172 0.709705C4.91977 0.767752 4.95238 0.846481 4.95238 0.928571V4.64286ZM4.64286 7.42857H0.928571C0.682299 7.42857 0.446113 7.5264 0.271972 7.70054C0.0978312 7.87469 0 8.11087 0 8.35714V12.0714C0 12.3177 0.0978312 12.5539 0.271972 12.728C0.446113 12.9022 0.682299 13 0.928571 13H4.64286C4.88913 13 5.12532 12.9022 5.29946 12.728C5.4736 12.5539 5.57143 12.3177 5.57143 12.0714V8.35714C5.57143 8.11087 5.4736 7.87469 5.29946 7.70054C5.12532 7.5264 4.88913 7.42857 4.64286 7.42857ZM4.95238 12.0714C4.95238 12.1535 4.91977 12.2322 4.86172 12.2903C4.80368 12.3483 4.72495 12.381 4.64286 12.381H0.928571C0.846481 12.381 0.767752 12.3483 0.709705 12.2903C0.651658 12.2322 0.619048 12.1535 0.619048 12.0714V8.35714C0.619048 8.27505 0.651658 8.19632 0.709705 8.13828C0.767752 8.08023 0.846481 8.04762 0.928571 8.04762H4.64286C4.72495 8.04762 4.80368 8.08023 4.86172 8.13828C4.91977 8.19632 4.95238 8.27505 4.95238 8.35714V12.0714ZM12.0714 0H8.35714C8.11087 0 7.87469 0.0978312 7.70054 0.271972C7.5264 0.446113 7.42857 0.682299 7.42857 0.928571V4.64286C7.42857 4.88913 7.5264 5.12532 7.70054 5.29946C7.87469 5.4736 8.11087 5.57143 8.35714 5.57143H12.0714C12.3177 5.57143 12.5539 5.4736 12.728 5.29946C12.9022 5.12532 13 4.88913 13 4.64286V0.928571C13 0.682299 12.9022 0.446113 12.728 0.271972C12.5539 0.0978312 12.3177 0 12.0714 0ZM12.381 4.64286C12.381 4.72495 12.3483 4.80368 12.2903 4.86172C12.2322 4.91977 12.1535 4.95238 12.0714 4.95238H8.35714C8.27505 4.95238 8.19632 4.91977 8.13828 4.86172C8.08023 4.80368 8.04762 4.72495 8.04762 4.64286V0.928571C8.04762 0.846481 8.08023 0.767752 8.13828 0.709705C8.19632 0.651658 8.27505 0.619048 8.35714 0.619048H12.0714C12.1535 0.619048 12.2322 0.651658 12.2903 0.709705C12.3483 0.767752 12.381 0.846481 12.381 0.928571V4.64286ZM7.42857 10.2143V7.7381C7.42857 7.656 7.46118 7.57728 7.51923 7.51923C7.57728 7.46118 7.656 7.42857 7.7381 7.42857C7.82019 7.42857 7.89892 7.46118 7.95696 7.51923C8.01501 7.57728 8.04762 7.656 8.04762 7.7381V10.2143C8.04762 10.2964 8.01501 10.3751 7.95696 10.4332C7.89892 10.4912 7.82019 10.5238 7.7381 10.5238C7.656 10.5238 7.57728 10.4912 7.51923 10.4332C7.46118 10.3751 7.42857 10.2964 7.42857 10.2143ZM13 8.97619C13 9.05828 12.9674 9.13701 12.9093 9.19506C12.8513 9.25311 12.7726 9.28572 12.6905 9.28572H10.5238V12.6905C10.5238 12.7726 10.4912 12.8513 10.4332 12.9093C10.3751 12.9674 10.2964 13 10.2143 13H7.7381C7.656 13 7.57728 12.9674 7.51923 12.9093C7.46118 12.8513 7.42857 12.7726 7.42857 12.6905C7.42857 12.6084 7.46118 12.5297 7.51923 12.4716C7.57728 12.4136 7.656 12.381 7.7381 12.381H9.90476V7.7381C9.90476 7.656 9.93737 7.57728 9.99542 7.51923C10.0535 7.46118 10.1322 7.42857 10.2143 7.42857C10.2964 7.42857 10.3751 7.46118 10.4332 7.51923C10.4912 7.57728 10.5238 7.656 10.5238 7.7381V8.66667H12.6905C12.7726 8.66667 12.8513 8.69928 12.9093 8.75732C12.9674 8.81537 13 8.8941 13 8.97619ZM13 11.4524V12.6905C13 12.7726 12.9674 12.8513 12.9093 12.9093C12.8513 12.9674 12.7726 13 12.6905 13C12.6084 13 12.5297 12.9674 12.4716 12.9093C12.4136 12.8513 12.381 12.7726 12.381 12.6905V11.4524C12.381 11.3703 12.4136 11.2916 12.4716 11.2335C12.5297 11.1755 12.6084 11.1429 12.6905 11.1429C12.7726 11.1429 12.8513 11.1755 12.9093 11.2335C12.9674 11.2916 13 11.3703 13 11.4524Z" fill="black"/>
</svg>
