<svg width="15" height="15" viewBox="0 0 15 15" fill="none" xmlns="http://www.w3.org/2000/svg">
<g id="Group">
<path id="Vector" d="M13.5125 14H5.55C5.42071 14 5.29671 13.9486 5.20529 13.8572C5.11386 13.7658 5.0625 13.6418 5.0625 13.5125V5.55C5.0625 5.42071 5.11386 5.29671 5.20529 5.20529C5.29671 5.11386 5.42071 5.0625 5.55 5.0625H13.5125C13.6418 5.0625 13.7658 5.11386 13.8572 5.20529C13.9486 5.29671 14 5.42071 14 5.55V13.5125C14 13.6418 13.9486 13.7658 13.8572 13.8572C13.7658 13.9486 13.6418 14 13.5125 14Z" stroke="black" stroke-width="0.5" stroke-linecap="round" stroke-linejoin="round"/>
<path id="Vector_2" d="M9.9375 5.0625V1.4875C9.9375 1.35821 9.88614 1.23421 9.79471 1.14279C9.70329 1.05136 9.57929 1 9.45 1H1.4875C1.35821 1 1.23421 1.05136 1.14279 1.14279C1.05136 1.23421 1 1.35821 1 1.4875V9.45C1 9.57929 1.05136 9.70329 1.14279 9.79471C1.23421 9.88614 1.35821 9.9375 1.4875 9.9375H5.0625" stroke="black" stroke-width="0.5" stroke-linecap="round" stroke-linejoin="round"/>
</g>
</svg>
