<svg width="25" height="25" viewBox="0 0 25 25" fill="none" xmlns="http://www.w3.org/2000/svg">
<g id="ph:arrow-up-light">
<path id="Vector" d="M13.649 19.9453C13.5392 19.8355 13.4776 19.6866 13.4776 19.5313C13.4776 19.376 13.5392 19.2271 13.649 19.1172L19.6792 13.086L3.90677 13.086C3.75137 13.086 3.60233 13.0242 3.49245 12.9144C3.38256 12.8045 3.32083 12.6554 3.32083 12.5C3.32083 12.3446 3.38256 12.1956 3.49245 12.0857C3.60233 11.9758 3.75137 11.9141 3.90677 11.9141L19.6792 11.9141L13.649 5.88285C13.5455 5.77177 13.4891 5.62486 13.4918 5.47306C13.4945 5.32126 13.556 5.17643 13.6633 5.06908C13.7707 4.96172 13.9155 4.90023 14.0673 4.89755C14.2191 4.89487 14.366 4.95122 14.4771 5.05472L21.5083 12.086C21.6181 12.1958 21.6797 12.3448 21.6797 12.5C21.6797 12.6553 21.6181 12.8042 21.5083 12.9141L14.4771 19.9453C14.3672 20.0551 14.2183 20.1167 14.063 20.1167C13.9077 20.1167 13.7588 20.0551 13.649 19.9453Z" fill="white"/>
</g>
</svg>
